<svg width="64" height="40" viewBox="0 0 64 40" fill="none" xmlns="http://www.w3.org/2000/svg">
<mask id="mask0_9336_2056" style="mask-type:alpha" maskUnits="userSpaceOnUse" x="0" y="0" width="64" height="40">
<g clip-path="url(#clip0_9336_2056)">
<path d="M20.7217 23.2244C24.1733 19.1826 32.1075 15.602 40.214 14.0302C39.331 13.9191 38.4505 13.8081 37.4075 13.6777C41.0071 11.7002 44.3812 9.59727 45.7759 5.51929C46.2877 6.95105 46.6516 8.34659 47.2725 9.61417C48.3471 11.8089 50.0959 13.0523 52.6768 12.9727C54.2049 12.9244 55.0903 13.7718 54.6755 15.2302C54.2874 16.5991 53.5476 17.9971 52.5968 19.0546C50.4622 21.4256 47.566 22.6328 44.5364 23.4634C39.1976 24.929 33.7642 24.9628 28.3114 24.3447C25.8422 24.0646 23.3923 23.6227 20.7217 23.2244Z" fill="#4FC3F7"/>
<path d="M0 39.6451C2.01084 38.1313 3.94648 36.4991 6.05192 35.1253C10.7018 32.0904 15.4197 29.1592 20.1424 26.2426C21.6341 25.3227 23.2399 24.8422 25.0906 25.2285C26.563 25.5376 28.1057 25.5231 29.6581 25.8346C21.0617 33.1745 12.1087 39.6717 0.206178 39.9977C0.13826 39.8818 0.0679174 39.7635 0 39.6451Z" fill="#FFD700"/>
<path d="M45.5072 0C46.5963 1.62009 48.139 1.64906 49.6065 1.85187C51.4791 2.11022 53.3832 2.22128 55.2194 2.6414C57.4898 3.1605 59.1731 4.48844 59.9008 6.82803C59.7383 6.88598 59.6364 6.94634 59.6146 6.92461C56.91 4.38221 53.4172 5.11619 50.2081 4.65987C49.3057 4.5319 48.3743 4.33392 47.552 3.95968C46.0239 3.26915 45.3981 2.0064 45.5072 0Z" fill="#4FC3F7"/>
<path d="M39.152 31.3202C39.671 31.3202 40.1004 31.3202 40.5758 31.3202C40.8159 32.4646 40.7043 33.9302 41.3859 34.6352C42.0675 35.3402 43.5666 35.2147 44.6605 35.5841C45.4489 35.8521 46.162 36.3374 46.8412 36.883C43.2415 35.8714 39.7098 36.0694 36.166 37.0183C36.4377 35.9945 36.4377 35.9945 40.0737 34.5918C39.7778 33.5391 39.477 32.4719 39.152 31.3202Z" fill="#FFD700"/>
<path d="M64.0002 9.77117C62.0694 9.77117 60.1313 9.84602 58.2078 9.71564C57.7712 9.68667 57.3831 8.95026 56.9731 8.5374C57.4073 8.28147 57.8439 7.80099 58.2757 7.80582C60.3642 7.82272 62.2561 8.56154 64.0002 9.77117Z" fill="#4FC3F7"/>
<path d="M54.5351 7.15398C53.9165 7.61273 53.5309 8.10286 53.2616 8.04733C52.8857 7.96765 52.597 7.47993 52.272 7.16606C52.5776 6.86184 52.8565 6.36205 53.1961 6.31376C53.5115 6.27272 53.8899 6.72421 54.5351 7.15398Z" fill="#4FC3F7"/>
</g>
</mask>
<g mask="url(#mask0_9336_2056)">
<ellipse cx="61.5001" cy="-0.0586573" rx="28.5" ry="13.5" transform="rotate(-30 61.5001 -0.0586573)" fill="#4FC3F7"/>
<ellipse cx="38.5" cy="39.5" rx="38.5" ry="25.5" fill="#FFD700"/>
</g>
<defs>
<clipPath id="clip0_9336_2056">
<rect width="64" height="40" fill="white"/>
</clipPath>
</defs>
</svg>
